<svg width="25" height="34" viewBox="0 0 25 34" fill="none" xmlns="http://www.w3.org/2000/svg">
<g id="Group 87">
<path id="Union" fill-rule="evenodd" clip-rule="evenodd" d="M18.8167 2.01275C18.707 1.30515 18.5313 0.172517 18.5101 0.0234375C18.2554 0.0497785 17.6616 0.108048 17.6616 0.108048C12.2026 0.844807 5.34666 4.58049 2.33577 11.2568C-1.62821 20.0523 1.02668 29.5472 8.37909 32.8607C13.7184 35.2696 19.8815 33.7147 24.5 28.8128C24.4579 28.7604 24.3998 28.6871 24.3403 28.6121C24.2903 28.549 24.2392 28.4848 24.1959 28.4304C20.0627 32.8527 14.5629 34.2703 9.8087 32.1247C5.33628 30.1084 2.82986 25.4955 2.82986 20.248C2.82986 17.8198 3.36468 15.2559 4.49574 12.7479C7.24801 6.64149 13.3616 3.25623 17.8747 2.69827C17.8747 2.69827 18.6994 2.59051 18.9021 2.56417C18.8926 2.50234 18.8597 2.29022 18.8167 2.01275ZM10.3422 31.4994C6.24409 29.6468 3.94922 25.4075 3.94922 20.567C3.94922 18.2986 4.45049 15.9047 5.51213 13.5603C8.17659 7.65266 13.9765 4.82297 18.14 4.19158C18.14 4.19158 18.915 4.06626 19.1059 4.03353C19.2255 4.76709 19.4643 6.2494 19.5328 6.68442C19.3326 6.71394 18.4568 6.84805 18.4568 6.84805C14.6629 7.45629 9.85605 10.2389 7.67052 15.0889C6.75255 17.1179 6.29199 19.2453 6.29199 21.2919C6.29199 22.7885 6.54104 24.2501 7.0479 25.5831C7.94511 27.9602 9.62058 29.7985 11.7598 30.7628C15.6152 32.4989 20.0733 31.2361 23.4306 27.4717C23.5201 27.5796 23.6491 27.7429 23.7319 27.8477L23.7507 27.8715C19.908 32.1077 14.7851 33.4991 10.3422 31.4994ZM12.2989 30.1313C9.14916 28.7136 7.40027 25.4106 7.40027 21.6071C7.40027 19.7545 7.81534 17.7901 8.683 15.8631C10.8127 11.1392 15.3713 8.84513 18.6272 8.31271C18.6272 8.31271 19.554 8.15466 19.756 8.11634C19.7747 8.2468 19.9035 9.05151 20.0132 9.73656L20.0133 9.73697C20.0901 10.217 20.1575 10.6382 20.171 10.7273C19.9603 10.7569 18.9377 10.9053 18.9377 10.9053C16.259 11.3467 12.5847 13.5714 10.8446 17.4267C10.0935 19.0927 9.73346 20.7945 9.73346 22.3749C9.73346 25.5264 11.1479 28.2427 13.7078 29.3937C16.662 30.7267 20.0744 29.61 22.6511 26.4905C22.7548 26.6222 22.9129 26.821 22.9935 26.9145C19.9283 30.4937 15.839 31.7269 12.2989 30.1313Z" fill="#93186C"/>
</g>
</svg>
